# xmcd
#
# Track frame offsets:
#	183
#	14143
#	31310
#	46365
#	65678
#	80538
#	94630
#	111788
#	126230
#	144920
#	161300
#	178015
#
# Disc length: 2549 seconds
#
# Revision: 2
# Processed by: cddbd v1.5.2PL0 Copyright (c) Steve Scherf et al.
# Submitted via: audiograbber 1.83.01
#
DISCID=9d09f30c
DTITLE=Marcel Amont - Sympathiq'
DYEAR=1900
DGENRE=
TTITLE0=Monsieur Coincé
TTITLE1=Une Journée Particulière
TTITLE2=Le Duke, Le Count, Le King
TTITLE3=J'aime Pas Les Femmes Bronzées
TTITLE4=Le Vieux Fossile
TTITLE5=Quand L'amour Se Lève
TTITLE6=Sympathiq'
TTITLE7=Au Cinématographe
TTITLE8=Demain J'arrête De Fumer
TTITLE9=Don Marcichotte (Et Sancho Marca)
TTITLE10=En Ce 13 Juillet
TTITLE11=Les Artistes
EXTD=
EXTT0=
EXTT1=
EXTT2=
EXTT3=
EXTT4=
EXTT5=
EXTT6=
EXTT7=
EXTT8=
EXTT9=
EXTT10=
EXTT11=
PLAYORDER=
